<svg width="84" height="30" viewBox="0 0 84 30" fill="none" xmlns="http://www.w3.org/2000/svg">
<path d="M20.9746 7.87999L23.9074 4.97999L23.2804 4.35999C18.1429 -0.720012 9.7895 -0.720012 4.65205 4.35999C-0.262917 9.21999 -0.465179 17.02 4.04526 22.14L1.09224 25.02L1.71925 25.64C6.8567 30.72 15.2101 30.72 20.3476 25.64C25.2828 20.78 25.485 12.98 20.9746 7.87999ZM5.90607 5.61999C10.1131 1.43999 16.8687 1.23999 21.3184 4.99999L19.6397 6.65999C16.0799 3.77999 10.8413 3.97999 7.52417 7.25999C4.20707 10.54 4.00481 15.74 6.91738 19.24L5.27906 20.86C1.47654 16.44 1.6788 9.77999 5.90607 5.61999ZM19.0733 24.38C14.8461 28.56 8.11073 28.76 3.64074 24.98L5.31951 23.32C8.87932 26.2 14.1179 26 17.435 22.72C20.7521 19.44 20.9544 14.24 18.0418 10.74L19.6801 9.11999C23.5029 13.56 23.3006 20.22 19.0733 24.38Z" fill="#00A699"/>
<path d="M46.2374 12.0996H48.8668V13.3596C48.8668 13.7596 48.8668 14.0996 48.8668 14.0996C50.2017 11.4396 54.6515 10.8596 55.6425 14.0796H55.683C56.5932 12.2996 58.8383 11.4396 60.7395 12.0196C62.4992 12.5596 63.0049 14.3196 63.0049 15.9596V22.9196H60.2743V16.4796C60.2743 15.3596 59.9709 14.2196 58.5956 14.3196C57.2606 14.3996 56.4111 15.5796 56.128 16.7796C56.0268 17.1996 56.0066 17.6796 56.0066 18.1796V22.9396H53.2558V16.4796C53.2558 15.2796 52.912 14.1596 51.4557 14.3396C50.1612 14.4996 49.3724 15.6396 49.0893 16.7996C48.9881 17.1996 48.9679 17.6996 48.9679 18.1796V22.9396H46.2374V12.0996V12.0996Z" fill="#00A699"/>
<path d="M82.6242 20.64C81.9162 20.64 81.5117 20.34 81.5117 19.16V10.26V7.86005L78.8014 10.54V19.56C78.8014 22.66 80.6622 23.04 82.1792 23.04C82.6242 23.04 83.0287 22.98 83.0287 22.98V20.62C83.0287 20.62 82.8264 20.64 82.6242 20.64Z" fill="#00A699"/>
<path d="M75.5855 14.0001C74.6349 12.4601 72.8954 11.7001 71.0751 11.8801C69.9222 12.0001 68.6884 12.6001 68.1018 13.6401C68.1018 13.6401 68.1018 13.3001 68.1018 12.9001V12.1201H65.614V28.0801L68.3445 25.3801V22.6601C68.3445 22.1001 68.3445 21.7201 68.3445 21.7201C69.2547 23.0401 71.0751 23.4201 72.5718 23.1001C76.5159 22.2401 77.4868 17.0401 75.5855 14.0001ZM70.9942 20.9201C69.3154 20.9201 68.385 19.4001 68.2839 17.9001C68.203 16.6401 68.5468 15.1601 69.7402 14.5001C70.7312 13.9601 72.0257 14.1001 72.8145 14.9001C74.554 16.6401 73.927 20.9201 70.9942 20.9201Z" fill="#00A699"/>
<path d="M43.6076 12.0999H40.8771V22.9399H43.6076V12.0999Z" fill="#00A699"/>
<path d="M38.4298 17.8599C38.005 15.9799 36.2049 15.0599 34.5464 14.3799C33.4542 13.9199 31.29 13.3599 31.3506 11.8599C31.4113 10.3599 33.171 9.97994 34.3846 10.1799C35.0722 10.2999 35.7397 10.5599 36.3263 10.9399L38.1466 9.13994C36.5083 7.57994 33.6564 7.19994 31.5933 7.93994C29.3685 8.73994 27.8313 11.1999 28.8628 13.4799C29.6112 15.1599 31.5529 15.8599 33.1305 16.5399C34.3441 17.0599 36.4881 17.9799 35.5172 19.6799C34.8295 20.8999 33.0699 20.7599 31.9372 20.3599C31.3102 20.1399 30.6832 19.7999 30.1371 19.3999L28.3167 21.1999C29.9146 22.7999 32.5237 23.4599 34.7082 23.0599C37.196 22.6199 38.9961 20.3799 38.4298 17.8599Z" fill="#00A699"/>
</svg>
